<?xml version="1.0" encoding="UTF-8"?>
<svg version="1.1" xmlns="http://www.w3.org/2000/svg" width="793" height="702">
<path d="M0 0 C3.73634034 3.20257743 4.45881154 4.75430385 5 9.625 C4.54379616 14.0349705 3.36380661 15.7852983 0.625 19.25 C-1.64753128 20.84218341 -3.77207401 22.1819281 -6.1875 23.5 C-7.54476292 24.27812882 -8.90018468 25.05947644 -10.25390625 25.84375 C-10.94242676 26.24078125 -11.63094727 26.6378125 -12.34033203 27.046875 C-17.47281317 30.08177626 -22.37304559 33.49017384 -27.30175781 36.84179688 C-29.55887419 38.37489241 -31.82244472 39.89821157 -34.0859375 41.421875 C-42.84741201 47.34240447 -51.37787382 53.41722251 -59.69580078 59.94921875 C-62.24158676 61.92129606 -64.82782013 63.8380052 -67.41186523 65.75952148 C-77.67617678 73.39325067 -87.50644959 81.45876727 -97.18847656 89.81518555 C-100.65617418 92.80231065 -104.17077089 95.7087903 -107.75 98.5625 C-113.2647843 103.0315178 -118.40322709 107.86882133 -123.54248047 112.7590332 C-126.72937419 115.78895093 -129.93914551 118.75806172 -133.27734375 121.62109375 C-138.89414564 126.49204791 -144.00673181 131.87180953 -149.19140625 137.19335938 C-149.96097656 137.97388672 -150.73054687 138.75441406 -151.5234375 139.55859375 C-152.21614746 140.26814209 -152.90885742 140.97769043 -153.62255859 141.70874023 C-155.375 143.25 -155.375 143.25 -157.375 143.25 C-157.61130127 143.81299805 -157.84760254 144.37599609 -158.09106445 144.95605469 C-159.67307106 147.7825491 -161.60364009 149.68604599 -163.91796875 151.953125 C-165.28211914 153.30083984 -165.28211914 153.30083984 -166.67382812 154.67578125 C-167.63634531 155.61756931 -168.59923819 156.55897355 -169.5625 157.5 C-175.18166694 163.01446196 -180.74333401 168.49777657 -185.86157227 174.48486328 C-188.08622699 177.07951623 -190.42047428 179.56158275 -192.75 182.0625 C-197.11860555 186.78631344 -201.23418263 191.66585612 -205.26953125 196.6796875 C-207.20245843 199.03936484 -209.19796619 201.30651151 -211.25 203.5625 C-215.10661356 207.84762618 -218.64109562 212.34583491 -222.17407227 216.89697266 C-225.09649285 220.65286699 -228.09843617 224.31583895 -231.1875 227.9375 C-237.35773959 235.28906711 -242.9680446 243.04480511 -248.60351562 250.80957031 C-250.29862792 253.1447884 -252.00024847 255.47512811 -253.703125 257.8046875 C-302.69339875 325.01259799 -342.62135597 398.20783872 -387.1875 621.9375 C-386.66091929 625.06075601 -386.04898354 628.15538071 -385.375 631.25 C-385.20871094 632.01844238 -385.04242188 632.78688477 -384.87109375 633.57861328 C-380.9703206 650.82508717 -373.61912627 664.69203142 -362.375 678.25 C-358.27237597 683.27786616 -356.81963311 685.5855973 -357.375 692.25 C-359.49267269 696.25845188 -361.1458601 698.61552254 -365.375 700.25 C-367.89501953 700.50878906 -367.89501953 700.50878906 -370.7578125 700.515625 C-371.82942627 700.51981445 -372.90104004 700.52400391 -374.00512695 700.52832031 C-375.15843506 700.51897461 -376.31174316 700.50962891 -377.5 700.5 C-378.69906982 700.49323242 -379.89813965 700.48646484 -381.13354492 700.47949219 C-406.81669824 700.19033186 -431.60143335 697.01101412 -456.375 690.25 C-457.36064941 689.99379883 -457.36064941 689.99379883 -458.36621094 689.73242188 C-486.26485118 682.46617343 -512.38965349 668.47088264 -535.375 651.25 C-536.04789063 650.77175781 -536.72078125 650.29351563 -537.4140625 649.80078125 C-546.39459421 643.3517986 -554.34607392 635.65694048 -561.52734375 627.28125 C-563.30819154 625.32344694 -565.14766014 623.68132255 -567.1875 622 C-575.59322459 614.82318251 -582.19684597 605.71756941 -588.5625 596.75 C-589.02495117 596.09918457 -589.48740234 595.44836914 -589.96386719 594.77783203 C-597.17353312 584.4338587 -603.4729779 573.67218552 -608.9375 562.3125 C-609.23013733 561.7049588 -609.52277466 561.0974176 -609.82427979 560.47146606 C-621.88951987 535.28891113 -631.20366543 508.90424519 -640.64718628 482.65917969 C-646.06523337 467.61762951 -651.80634644 452.83364069 -658.375 438.25 C-658.75672363 437.38777832 -659.13844727 436.52555664 -659.53173828 435.63720703 C-670.60647342 410.71306273 -686.66803196 380.37903703 -713.62109375 370 C-731.01308593 364.415949 -747.67633456 367.45924195 -763.875 375 C-769.68190814 377.69857041 -773.94411378 379.39096368 -780.375 378.25 C-783.56000291 376.62854397 -785.59611096 375.27671736 -787.75 372.4375 C-789.14212494 367.56506269 -788.83798869 363.60802825 -786.42578125 359.19140625 C-785.5330929 357.71940943 -784.61902988 356.26022898 -783.6875 354.8125 C-782.9464502 353.63723755 -782.9464502 353.63723755 -782.19042969 352.43823242 C-760.15346006 318.24923155 -726.97446241 291.51985687 -686.875 282.4375 C-654.81113234 275.88980425 -625.21989998 282.72391834 -597.375 299.25 C-593.75805072 301.6747956 -590.5671886 304.29653159 -587.375 307.25 C-586.41722656 308.08015625 -585.45945312 308.9103125 -584.47265625 309.765625 C-544.3722938 344.84787706 -531.24261202 398.4687311 -519.64892578 448.27416992 C-519.44505753 449.1498613 -519.24118927 450.02555267 -519.03114319 450.92778015 C-518.65083675 452.56638734 -518.27246577 454.20544552 -517.89646912 455.845047 C-516.853286 460.35862027 -515.68618897 464.80658752 -514.375 469.25 C-508.71255901 458.67122789 -503.23562623 448.0108458 -497.9046936 437.26168823 C-491.69620032 424.74969269 -485.28819274 412.39036783 -478.375 400.25 C-477.94300293 399.4878418 -477.51100586 398.72568359 -477.06591797 397.94042969 C-446.05145219 343.34670856 -409.91445466 291.52453206 -368.296875 244.45703125 C-366.74665022 242.67679345 -365.220477 240.88227344 -363.703125 239.07421875 C-357.83758102 232.10852242 -351.80640447 225.49880712 -345.26171875 219.1640625 C-343.11478071 217.05112658 -341.13325105 214.84450781 -339.171875 212.55859375 C-334.67234853 207.35864899 -329.80810418 202.53733401 -324.9375 197.6875 C-324.03451172 196.78064453 -323.13152344 195.87378906 -322.20117188 194.93945312 C-317.61971373 190.36462996 -312.97965935 185.93899802 -308.06616211 181.72290039 C-305.89494874 179.83190425 -303.87927794 177.81594803 -301.875 175.75 C-297.86763726 171.70181523 -293.70973165 167.94174645 -289.375 164.25 C-288.3225354 163.34549552 -287.2704864 162.44050735 -286.21875 161.53515625 C-283.20919712 158.94645762 -280.19314785 156.36546722 -277.17431641 153.78759766 C-276.0141774 152.79620614 -274.85492905 151.80377096 -273.69677734 150.81005859 C-265.99379862 144.20121347 -258.13335944 137.83896162 -250.11914062 131.61181641 C-248.420739 130.28571279 -246.7322391 128.94808909 -245.046875 127.60546875 C-180.89934876 76.5800933 -108.03794175 37.23432916 -32.375 6.25 C-30.73966309 5.57831787 -30.73966309 5.57831787 -29.07128906 4.89306641 C-26.20022154 3.72294851 -23.32169257 2.57481728 -20.4375 1.4375 C-19.2153479 0.94032471 -19.2153479 0.94032471 -17.96850586 0.43310547 C-11.70436417 -1.98244827 -6.24011177 -3.23561351 0 0 Z " fill="#01CEFE" transform="translate(788.375,1.75)"/>
<path d="M0 0 C-0.98355469 0.63164062 -1.96710938 1.26328125 -2.98046875 1.9140625 C-4.38290641 2.81756258 -5.78524127 3.72122223 -7.1875 4.625 C-7.93547852 5.10557861 -8.68345703 5.58615723 -9.45410156 6.08129883 C-13.88872674 8.94347453 -18.27795777 11.85960147 -22.62890625 14.84765625 C-23.56387939 15.48558105 -24.49885254 16.12350586 -25.4621582 16.78076172 C-27.29924418 18.03723265 -29.1300153 19.30299422 -30.95385742 20.57861328 C-31.79924072 21.15466309 -32.64462402 21.73071289 -33.515625 22.32421875 C-34.26102539 22.84072998 -35.00642578 23.35724121 -35.77441406 23.8894043 C-38.38245637 25.1908506 -40.12256056 25.0998229 -43 25 C-45.62133927 26.33417908 -45.62133927 26.33417908 -48.1875 28.1875 C-53.29113525 31.5899235 -58.47556112 34.35668404 -64 37 C-65.48032337 37.74771435 -66.95957637 38.49755348 -68.4375 39.25 C-72 41 -72 41 -75 42 C-75 42.66 -75 43.32 -75 44 C-76.134375 44.45375 -77.26875 44.9075 -78.4375 45.375 C-82.04721692 46.57095806 -82.04721692 46.57095806 -83 49 C-84.65071396 50.02611949 -86.31970006 51.02308143 -88 52 C-88.70125 52.556875 -89.4025 53.11375 -90.125 53.6875 C-92 55 -92 55 -95 55 C-95 55.66 -95 56.32 -95 57 C-98.92202617 60.63718628 -103.58125378 63.38991036 -108.1875 66.0625 C-112.05068225 68.31553148 -114.87414972 70.78732055 -118 74 C-119.98450156 75.03041427 -121.98199105 76.03685937 -124 77 C-124.33 77.66 -124.66 78.32 -125 79 C-125.66 79 -126.32 79 -127 79 C-127 79.66 -127 80.32 -127 81 C-128.96498322 82.38442 -130.97048465 83.71203834 -133 85 C-134.11375 85.86625 -134.11375 85.86625 -135.25 86.75 C-137 88 -137 88 -139 88 C-139 88.99 -139 89.98 -139 91 C-139.66 91.185625 -140.32 91.37125 -141 91.5625 C-144.69577748 93.33339338 -147.25615495 95.75242051 -150.23046875 98.5390625 C-152 100 -152 100 -154 100 C-154.33 100.99 -154.66 101.98 -155 103 C-157.3434712 104.58342649 -159.6667697 105.85189764 -162.25 107 C-164.35137474 107.94279946 -164.35137474 107.94279946 -165 111 C-169.31818182 115.77272727 -169.31818182 115.77272727 -173 117 C-173.33 117.99 -173.66 118.98 -174 120 C-175.671875 121.6484375 -175.671875 121.6484375 -177.75 123.375 C-180.24116346 125.47775626 -182.62768528 127.575801 -184.875 129.9375 C-187 132 -187 132 -189 132 C-189 132.66 -189 133.32 -189 134 C-190.875 136.125 -190.875 136.125 -193 138 C-193.66 138 -194.32 138 -195 138 C-195.20625 138.556875 -195.4125 139.11375 -195.625 139.6875 C-197.15524242 142.26108952 -199.00815839 143.66998169 -201.34375 145.49609375 C-203.9009394 147.81806997 -205.75319018 150.58998894 -207.703125 153.42578125 C-208.34507812 154.20501953 -208.34507812 154.20501953 -209 155 C-209.66 155 -210.32 155 -211 155 C-211.309375 156.0828125 -211.309375 156.0828125 -211.625 157.1875 C-213.10013452 160.20482061 -214.80680036 161.71535994 -217.4296875 163.76171875 C-222.03141484 167.39044404 -225.71485071 171.94619564 -229.44921875 176.42578125 C-229.96097656 176.94527344 -230.47273438 177.46476563 -231 178 C-231.66 178 -232.32 178 -233 178 C-233 178.66 -233 179.32 -233 180 C-234.65853151 181.34343917 -236.3266008 182.67512617 -238 184 C-239.31786496 185.52304155 -240.58886993 187.08776469 -241.8125 188.6875 C-244.44545887 192.06144166 -247.129828 195.32533039 -250 198.5 C-254.76455232 203.78874668 -259.14811109 209.36835412 -263.54296875 214.96484375 C-264.65139395 216.3463121 -265.81898955 217.68004714 -267 219 C-267.66 219 -268.32 219 -269 219 C-269.061875 219.556875 -269.12375 220.11375 -269.1875 220.6875 C-270 223 -270 223 -272.23828125 225.2109375 C-275.24625054 228.24868867 -277.58349666 231.42979437 -280 234.9375 C-282.45390022 238.47648422 -284.90624368 241.94918845 -287.6953125 245.234375 C-289.78532804 247.74239365 -291.28545028 250.22887419 -292.83984375 253.0859375 C-294.71829858 256.18507172 -297.03400342 258.93100113 -299.2890625 261.76171875 C-300.77874004 263.71054348 -302.06235215 265.64425451 -303.3125 267.75 C-305.57087177 271.47928497 -308.15157571 274.92738495 -310.8125 278.375 C-311.25070068 278.94452393 -311.68890137 279.51404785 -312.14038086 280.10083008 C-314.04160327 282.552268 -315.9577987 284.95187571 -318.00390625 287.28515625 C-323.66155092 293.79321932 -327.47154948 301.1188434 -331.50292969 308.68994141 C-334.35743269 314.03785729 -337.28030831 319.2560292 -340.625 324.3125 C-348.61782161 336.43205016 -355.68464248 348.9320679 -362 362 C-362.89283933 363.79316055 -363.7883987 365.58497105 -364.6875 367.375 C-365.08582031 368.17164063 -365.48414063 368.96828125 -365.89453125 369.7890625 C-366.88802083 371.77604167 -367.88151042 373.76302083 -368.875 375.75 C-369.19339844 376.39453125 -369.51179687 377.0390625 -369.83984375 377.703125 C-370.74572995 379.49659666 -371.68159873 381.27493288 -372.62890625 383.046875 C-376.26934667 389.9975215 -378.97743818 396.69933798 -381.15380859 404.23486328 C-382.69906235 409.42747275 -384.86887236 413.83487113 -387.59375 418.4921875 C-389.40660454 421.72511143 -390.70380796 425.05715235 -392.01953125 428.515625 C-392.99530032 430.98809165 -394.10136892 433.35352054 -395.25 435.75 C-401.17768998 448.68480498 -405.84632169 462.32302529 -409.36523438 476.10180664 C-410.20215825 479.34411459 -411.08852461 482.19377827 -412.48828125 485.2578125 C-414.718438 490.23429427 -415.41007565 495.60392479 -416.375 500.9375 C-417.79130786 508.44022174 -419.32217899 515.75565237 -421.75 523 C-423.58185525 528.46703217 -424.53822939 533.27404447 -425 539 C-425.30550781 539.89589844 -425.61101562 540.79179688 -425.92578125 541.71484375 C-427.19358247 545.59201038 -427.85329733 549.41870484 -428.5 553.4375 C-429.36039211 558.75585783 -430.42396527 563.84392087 -432 569 C-441.8804052 571.4701013 -449.91358754 569.33575389 -459 565 C-462.33270601 562.60752669 -465.18262404 559.97286028 -468 557 C-468.50660156 556.49984375 -469.01320313 555.9996875 -469.53515625 555.484375 C-480.22074014 544.65631666 -491.20061214 531.58628962 -495.9296875 517.015625 C-497.28266793 513.20357796 -498.95875798 509.59142211 -500.6875 505.9375 C-500.9976001 505.28160889 -501.3077002 504.62571777 -501.62719727 503.94995117 C-502.73323639 501.62400248 -503.84817026 499.30365948 -505 497 C-505.84306138 488.73632902 -503.30102118 483.21084363 -499.6875 475.875 C-498.87152344 474.16691162 -498.87152344 474.16691162 -498.0390625 472.42431641 C-496.91537063 470.07623058 -495.78432053 467.73165212 -494.64599609 465.390625 C-493.13585221 462.27984508 -491.64990204 459.15922396 -490.17578125 456.03125 C-485.45430382 446.03066056 -480.60318729 436.09395833 -475.6875 426.1875 C-475.20796875 425.21538574 -474.7284375 424.24327148 -474.234375 423.24169922 C-471.4910912 417.74848238 -468.55838084 412.44896656 -465.32617188 407.22753906 C-464.03023748 405.05078916 -462.90291335 402.84798929 -461.8125 400.5625 C-433.30000281 342.45475256 -391.68315651 287.56800438 -348.921875 239.20703125 C-347.37165022 237.42679345 -345.845477 235.63227344 -344.328125 233.82421875 C-338.46258102 226.85852242 -332.43140447 220.24880712 -325.88671875 213.9140625 C-323.71925361 211.78101938 -321.71711317 209.55158321 -319.734375 207.24609375 C-315.56130215 202.42341998 -311.08109145 197.93455725 -306.5625 193.4375 C-305.75490234 192.62603516 -304.94730469 191.81457031 -304.11523438 190.97851562 C-299.78246145 186.65272541 -295.36793611 182.50006792 -290.72631836 178.50805664 C-288.54547757 176.60294371 -286.51585234 174.57787857 -284.5 172.5 C-280.49263726 168.45181523 -276.33473165 164.69174645 -272 161 C-270.9475354 160.09549552 -269.8954864 159.19050735 -268.84375 158.28515625 C-265.83419712 155.69645762 -262.81814785 153.11546722 -259.79931641 150.53759766 C-258.6391774 149.54620614 -257.47992905 148.55377096 -256.32177734 147.56005859 C-248.61879862 140.95121347 -240.75835944 134.58896162 -232.74414062 128.36181641 C-231.045739 127.03571279 -229.3572391 125.69808909 -227.671875 124.35546875 C-191.16397399 95.31569956 -151.08076062 67.76870184 -108.98901367 47.51147461 C-105.82227646 45.91012934 -102.7838555 44.15790331 -99.72265625 42.36328125 C-91.62042853 37.6837645 -83.28941482 33.52234642 -74.875 29.4375 C-74.0866275 29.05348022 -73.298255 28.66946045 -72.48599243 28.27380371 C-60.37319533 22.39110742 -48.12730296 16.90405797 -35.6875 11.75 C-34.59486847 11.29704056 -34.59486847 11.29704056 -33.48016357 10.83493042 C-28.66946728 8.84873475 -23.84060354 6.91199204 -19 5 C-18.26493225 4.70681885 -17.5298645 4.4136377 -16.77252197 4.11157227 C-14.56722443 3.23552206 -12.35694611 2.37351971 -10.14453125 1.515625 C-9.47080978 1.24699646 -8.79708832 0.97836792 -8.10295105 0.70159912 C-3.34469443 -1.11489814 -3.34469443 -1.11489814 0 0 Z " fill="#05A5FC" transform="translate(778,14)"/>
<path d="M0 0 C3.73634034 3.20257743 4.45881154 4.75430385 5 9.625 C4.54379616 14.0349705 3.36380661 15.7852983 0.625 19.25 C-1.64753128 20.84218341 -3.77207401 22.1819281 -6.1875 23.5 C-7.54476292 24.27812882 -8.90018468 25.05947644 -10.25390625 25.84375 C-10.94242676 26.24078125 -11.63094727 26.6378125 -12.34033203 27.046875 C-17.47281317 30.08177626 -22.37304559 33.49017384 -27.30175781 36.84179688 C-29.55887419 38.37489241 -31.82244472 39.89821157 -34.0859375 41.421875 C-42.84741201 47.34240447 -51.37787382 53.41722251 -59.69580078 59.94921875 C-62.24158676 61.92129606 -64.82782013 63.8380052 -67.41186523 65.75952148 C-77.67617678 73.39325067 -87.50644959 81.45876727 -97.18847656 89.81518555 C-100.65617418 92.80231065 -104.17077089 95.7087903 -107.75 98.5625 C-113.2647843 103.0315178 -118.40322709 107.86882133 -123.54248047 112.7590332 C-126.72937419 115.78895093 -129.93914551 118.75806172 -133.27734375 121.62109375 C-138.89414564 126.49204791 -144.00673181 131.87180953 -149.19140625 137.19335938 C-149.96097656 137.97388672 -150.73054687 138.75441406 -151.5234375 139.55859375 C-152.21614746 140.26814209 -152.90885742 140.97769043 -153.62255859 141.70874023 C-155.375 143.25 -155.375 143.25 -157.375 143.25 C-157.61130127 143.81299805 -157.84760254 144.37599609 -158.09106445 144.95605469 C-159.67307106 147.7825491 -161.60364009 149.68604599 -163.91796875 151.953125 C-165.28211914 153.30083984 -165.28211914 153.30083984 -166.67382812 154.67578125 C-167.63634531 155.61756931 -168.59923819 156.55897355 -169.5625 157.5 C-175.18166694 163.01446196 -180.74333401 168.49777657 -185.86157227 174.48486328 C-188.08622699 177.07951623 -190.42047428 179.56158275 -192.75 182.0625 C-197.11860555 186.78631344 -201.23418263 191.66585612 -205.26953125 196.6796875 C-207.20245843 199.03936484 -209.19796619 201.30651151 -211.25 203.5625 C-215.10661356 207.84762618 -218.64109562 212.34583491 -222.17407227 216.89697266 C-225.09649285 220.65286699 -228.09843617 224.31583895 -231.1875 227.9375 C-237.35773959 235.28906711 -242.9680446 243.04480511 -248.60351562 250.80957031 C-250.29862792 253.1447884 -252.00024847 255.47512811 -253.703125 257.8046875 C-302.69339875 325.01259799 -342.62135597 398.20783872 -387.1875 621.9375 C-386.66091929 625.06075601 -386.04898354 628.15538071 -385.375 631.25 C-385.20871094 632.01844238 -385.04242188 632.78688477 -384.87109375 633.57861328 C-380.9703206 650.82508717 -373.61912627 664.69203142 -362.375 678.25 C-358.27237597 683.27786616 -356.81963311 685.5855973 -357.375 692.25 C-359.49267269 696.25845188 -361.1458601 698.61552254 -365.375 700.25 C-367.89501953 700.50878906 -367.89501953 700.50878906 -370.7578125 700.515625 C-371.82942627 700.51981445 -372.90104004 700.52400391 -374.00512695 700.52832031 C-375.15843506 700.51897461 -376.31174316 700.50962891 -377.5 700.5 C-378.69906982 700.49323242 -379.89813965 700.48646484 -381.13354492 700.47949219 C-406.81669824 700.19033186 -431.60143335 697.01101412 -456.375 690.25 C-457.36064941 689.99379883 -457.36064941 689.99379883 -458.36621094 689.73242188 C-486.26485118 682.46617343 -512.38965349 668.47088264 -535.375 651.25 C-536.04789063 650.77175781 -536.72078125 650.29351563 -537.4140625 649.80078125 C-546.39459421 643.3517986 -554.34607392 635.65694048 -561.52734375 627.28125 C-563.30819154 625.32344694 -565.14766014 623.68132255 -567.1875 622 C-575.59322459 614.82318251 -582.19684597 605.71756941 -588.5625 596.75 C-589.02495117 596.09918457 -589.48740234 595.44836914 -589.96386719 594.77783203 C-597.17353312 584.4338587 -603.4729779 573.67218552 -608.9375 562.3125 C-609.23013733 561.7049588 -609.52277466 561.0974176 -609.82427979 560.47146606 C-621.88951987 535.28891113 -631.20366543 508.90424519 -640.64718628 482.65917969 C-646.06523337 467.61762951 -651.80634644 452.83364069 -658.375 438.25 C-658.75672363 437.38777832 -659.13844727 436.52555664 -659.53173828 435.63720703 C-670.60647342 410.71306273 -686.66803196 380.37903703 -713.62109375 370 C-731.01308593 364.415949 -747.67633456 367.45924195 -763.875 375 C-769.68190814 377.69857041 -773.94411378 379.39096368 -780.375 378.25 C-783.56000291 376.62854397 -785.59611096 375.27671736 -787.75 372.4375 C-789.14212494 367.56506269 -788.83798869 363.60802825 -786.42578125 359.19140625 C-785.5330929 357.71940943 -784.61902988 356.26022898 -783.6875 354.8125 C-782.9464502 353.63723755 -782.9464502 353.63723755 -782.19042969 352.43823242 C-760.15346006 318.24923155 -726.97446241 291.51985687 -686.875 282.4375 C-654.81113234 275.88980425 -625.21989998 282.72391834 -597.375 299.25 C-593.75805072 301.6747956 -590.5671886 304.29653159 -587.375 307.25 C-586.41722656 308.08015625 -585.45945312 308.9103125 -584.47265625 309.765625 C-544.3722938 344.84787706 -531.24261202 398.4687311 -519.64892578 448.27416992 C-519.44505753 449.1498613 -519.24118927 450.02555267 -519.03114319 450.92778015 C-518.65083675 452.56638734 -518.27246577 454.20544552 -517.89646912 455.845047 C-516.853286 460.35862027 -515.68618897 464.80658752 -514.375 469.25 C-508.71255901 458.67122789 -503.23562623 448.0108458 -497.9046936 437.26168823 C-491.69620032 424.74969269 -485.28819274 412.39036783 -478.375 400.25 C-477.94300293 399.4878418 -477.51100586 398.72568359 -477.06591797 397.94042969 C-446.05145219 343.34670856 -409.91445466 291.52453206 -368.296875 244.45703125 C-366.74665022 242.67679345 -365.220477 240.88227344 -363.703125 239.07421875 C-357.83758102 232.10852242 -351.80640447 225.49880712 -345.26171875 219.1640625 C-343.11478071 217.05112658 -341.13325105 214.84450781 -339.171875 212.55859375 C-334.67234853 207.35864899 -329.80810418 202.53733401 -324.9375 197.6875 C-324.03451172 196.78064453 -323.13152344 195.87378906 -322.20117188 194.93945312 C-317.61971373 190.36462996 -312.97965935 185.93899802 -308.06616211 181.72290039 C-305.89494874 179.83190425 -303.87927794 177.81594803 -301.875 175.75 C-297.86763726 171.70181523 -293.70973165 167.94174645 -289.375 164.25 C-288.3225354 163.34549552 -287.2704864 162.44050735 -286.21875 161.53515625 C-283.20919712 158.94645762 -280.19314785 156.36546722 -277.17431641 153.78759766 C-276.0141774 152.79620614 -274.85492905 151.80377096 -273.69677734 150.81005859 C-265.99379862 144.20121347 -258.13335944 137.83896162 -250.11914062 131.61181641 C-248.420739 130.28571279 -246.7322391 128.94808909 -245.046875 127.60546875 C-180.89934876 76.5800933 -108.03794175 37.23432916 -32.375 6.25 C-30.73966309 5.57831787 -30.73966309 5.57831787 -29.07128906 4.89306641 C-26.20022154 3.72294851 -23.32169257 2.57481728 -20.4375 1.4375 C-19.2153479 0.94032471 -19.2153479 0.94032471 -17.96850586 0.43310547 C-11.70436417 -1.98244827 -6.24011177 -3.23561351 0 0 Z M-20.0078125 13.609375 C-20.66759094 13.86908081 -21.32736938 14.12878662 -22.00714111 14.3963623 C-24.17569864 15.2539153 -26.33800038 16.12605685 -28.5 17 C-30.01247594 17.60528472 -31.52500903 18.21042664 -33.03759766 18.81542969 C-52.29352081 26.54927119 -71.1305937 35.0371475 -89.8125 44.0625 C-90.56561462 44.42516968 -91.31872925 44.78783936 -92.09466553 45.16149902 C-99.68516114 48.82487286 -107.12265522 52.53850582 -114.29223633 56.98706055 C-117.27431942 58.79532638 -120.34811732 60.25514736 -123.5 61.75 C-182.40234828 90.53443626 -237.76589631 132.80224106 -285.921875 177.015625 C-288.08525159 178.98608903 -290.27968605 180.90687622 -292.5 182.8125 C-296.15352917 185.98137734 -299.53960973 189.3735208 -302.90625 192.84375 C-304.90937232 194.79616036 -306.94016727 196.61945906 -309.05859375 198.44140625 C-313.90003157 202.64423913 -318.4166259 207.14497766 -322.9375 211.6875 C-323.74896484 212.49509766 -324.56042969 213.30269531 -325.39648438 214.13476562 C-329.72616113 218.47143136 -333.88054086 222.89076842 -337.87573242 227.53686523 C-339.73203866 229.65796943 -341.71310702 231.61535518 -343.75 233.5625 C-347.83415485 237.59146357 -351.40978656 241.88840064 -354.9921875 246.36328125 C-357.52198062 249.4280634 -360.16740015 252.34347062 -362.875 255.25 C-367.95913865 260.72230818 -372.71319364 266.41193082 -377.375 272.25 C-378.01824219 273.04792969 -378.66148437 273.84585937 -379.32421875 274.66796875 C-381.35075794 277.1877832 -383.36393524 279.71781992 -385.375 282.25 C-386.18453125 283.26320313 -386.9940625 284.27640625 -387.828125 285.3203125 C-415.43749684 320.03349 -439.8563184 357.07269484 -462.375 395.25 C-463.04426514 396.38332764 -463.04426514 396.38332764 -463.72705078 397.53955078 C-468.67277324 405.93632592 -473.55864275 414.31235693 -477.8125 423.0859375 C-479.3823228 426.26482868 -481.02482914 429.3951284 -482.6887207 432.52539062 C-492.0368369 450.11410427 -500.99739234 467.87553396 -509.125 486.0625 C-509.63853027 487.2071875 -510.15206055 488.351875 -510.68115234 489.53125 C-511.15246582 490.59988281 -511.6237793 491.66851562 -512.109375 492.76953125 C-512.52413086 493.70901611 -512.93888672 494.64850098 -513.36621094 495.61645508 C-514.3415925 498.16278638 -514.92897972 500.56506726 -515.375 503.25 C-516.035 503.25 -516.695 503.25 -517.375 503.25 C-517.77525391 501.33574219 -517.77525391 501.33574219 -518.18359375 499.3828125 C-519.12357647 495.15412385 -520.30558345 491.04701454 -521.58178711 486.90942383 C-525.21981695 475.07155497 -528.0913997 463.13620804 -530.8125 451.0625 C-542.53337826 399.20283096 -557.14992978 339.60967335 -604.375 308.25 C-630.75889689 291.95545686 -659.34933721 287.67072702 -689.52148438 294.75390625 C-723.91079117 303.57167722 -754.32723282 328.99897198 -772.67578125 358.9296875 C-774.29059657 361.68037492 -775.86417748 364.44114687 -777.375 367.25 C-774.15552186 366.69395887 -771.4829329 365.95129456 -768.5625 364.5 C-764.20194453 362.49590632 -759.75967805 360.99440854 -755.1875 359.5625 C-754.51033936 359.34819336 -753.83317871 359.13388672 -753.13549805 358.91308594 C-735.79839341 353.58120875 -718.43995476 355.17511162 -702.140625 362.75390625 C-685.08094423 371.92458956 -672.86197198 387.76871143 -663.375 404.25 C-663.02083008 404.85295898 -662.66666016 405.45591797 -662.30175781 406.07714844 C-645.61116067 434.49388443 -634.67347705 465.6550015 -623.3828125 496.49707031 C-621.37585247 501.97926056 -619.34789558 507.45271014 -617.26660156 512.90722656 C-616.59544969 514.6707461 -615.92891668 516.43602452 -615.26464844 518.20214844 C-604.3948944 547.01426595 -592.32018546 574.70155916 -572.68457031 598.64794922 C-571.42992867 600.18280352 -570.19494383 601.73366286 -568.9609375 603.28515625 C-564.40847487 608.97182349 -559.62749111 614.20714268 -554.375 619.25 C-549.375 624.25 -549.375 624.25 -547.421875 626.2734375 C-542.06895685 631.75737113 -536.46407328 636.60354146 -530.375 641.25 C-529.34375 642.04019531 -528.3125 642.83039062 -527.25 643.64453125 C-485.02894813 675.73227397 -431.85372978 688.92515074 -379.5 689.4375 C-378.72027832 689.45055176 -377.94055664 689.46360352 -377.13720703 689.47705078 C-375.21498317 689.48004823 -373.29323382 689.37382472 -371.375 689.25 C-370.715 688.59 -370.055 687.93 -369.375 687.25 C-369.77589844 686.83492187 -370.17679687 686.41984375 -370.58984375 685.9921875 C-382.55845046 673.01941197 -390.10837563 657.80923836 -394.625 640.875 C-394.87145264 639.95468994 -395.11790527 639.03437988 -395.37182617 638.08618164 C-398.76448578 624.65040522 -399.75883052 611.28948602 -399.6875 597.5 C-399.68534485 596.74165863 -399.6831897 595.98331726 -399.68096924 595.20199585 C-399.45920967 546.10019798 -386.84331111 496.53233103 -370.21191406 450.60205078 C-369.37971251 448.26324398 -368.58661223 445.91464356 -367.8046875 443.55859375 C-362.85641368 428.75618173 -356.69617594 414.51167784 -350.375 400.25 C-349.89450195 399.16509277 -349.41400391 398.08018555 -348.91894531 396.96240234 C-343.2348077 384.19571125 -337.1843933 371.70548374 -330.53515625 359.41455078 C-329.43877314 357.36898415 -328.37015857 355.31189695 -327.3125 353.24609375 C-308.94596268 317.53411269 -286.64887741 283.25553119 -262.70458984 251.04736328 C-261.37203599 249.2459932 -260.05313911 247.43541261 -258.73828125 245.62109375 C-248.91336641 232.07805932 -238.7277634 218.8340476 -227.828125 206.13671875 C-225.5761065 203.48665239 -223.40154994 200.79429078 -221.25 198.0625 C-217.83599302 193.75484702 -214.2214773 189.67079452 -210.51953125 185.609375 C-208.65106887 183.55372604 -206.81806264 181.47510099 -205 179.375 C-201.54550854 175.40635167 -197.9847342 171.53754859 -194.41796875 167.67016602 C-191.89229853 164.92609452 -189.41505562 162.15409529 -187 159.3125 C-183.14540256 154.8328327 -178.89019203 150.74269115 -174.64111328 146.64086914 C-173.18274458 145.21344329 -171.77420211 143.73546871 -170.375 142.25 C-170.375 141.59 -170.375 140.93 -170.375 140.25 C-169.818125 140.023125 -169.26125 139.79625 -168.6875 139.5625 C-164.8870039 137.40546167 -162.1963345 134.32623141 -159.5625 130.875 C-157.16888856 128.00266627 -154.55255371 125.75618175 -151.71484375 123.3359375 C-148.99376936 120.91013829 -146.43187443 118.34560162 -143.875 115.75 C-140.2167336 112.04689275 -136.4886389 108.49913072 -132.52734375 105.12109375 C-130.32763732 103.20882627 -128.18849521 101.23808272 -126.05322266 99.25439453 C-121.22021651 94.76779687 -116.30300638 90.51860753 -111.10546875 86.453125 C-108.42371318 84.28930505 -105.83424107 82.04882813 -103.24804688 79.77294922 C-91.26828442 69.23288189 -78.66224278 59.55475744 -65.75 50.1875 C-64.66755005 49.40149414 -64.66755005 49.40149414 -63.56323242 48.59960938 C-60.14360284 46.14379828 -56.70232515 43.81181663 -53.1015625 41.62890625 C-50.09137855 39.78257217 -47.86187084 37.7658441 -45.375 35.25 C-42.71304637 33.29395366 -39.95207024 31.49449318 -37.1875 29.6875 C-36.0121167 28.91164551 -36.0121167 28.91164551 -34.81298828 28.12011719 C-26.7014526 22.77730604 -18.54465058 17.50339556 -10.375 12.25 C-14.43729373 10.89590209 -16.05313325 12.03805615 -20.0078125 13.609375 Z " fill="#FEFEFE" transform="translate(788.375,1.75)"/>
</svg>
